<svg xmlns="http://www.w3.org/2000/svg" viewBox="0 0 600 450" fill="none">
  <defs>
    <linearGradient id="g3" x1="0" y1="0" x2="1" y2="1">
      <stop offset="0%" stop-color="#F0F9F8"/><stop offset="100%" stop-color="#E0F0EE"/>
    </linearGradient>
  </defs>
  <rect width="600" height="450" rx="12" fill="url(#g3)"/>
  <!-- Waiting room chairs -->
  <rect x="80" y="250" width="120" height="60" rx="8" fill="#2A9D8F" opacity="0.12"/>
  <rect x="80" y="230" width="120" height="25" rx="6" fill="#2A9D8F" opacity="0.08"/>
  <rect x="240" y="250" width="120" height="60" rx="8" fill="#2A9D8F" opacity="0.12"/>
  <rect x="240" y="230" width="120" height="25" rx="6" fill="#2A9D8F" opacity="0.08"/>
  <rect x="400" y="250" width="120" height="60" rx="8" fill="#2A9D8F" opacity="0.12"/>
  <rect x="400" y="230" width="120" height="25" rx="6" fill="#2A9D8F" opacity="0.08"/>
  <!-- Table -->
  <rect x="220" y="170" width="100" height="50" rx="6" fill="#2A9D8F" opacity="0.08"/>
  <!-- Magazine -->
  <rect x="240" y="165" width="30" height="40" rx="2" fill="#2A9D8F" opacity="0.15" transform="rotate(-10 255 185)"/>
  <rect x="270" y="168" width="30" height="40" rx="2" fill="#2A9D8F" opacity="0.1" transform="rotate(5 285 188)"/>
  <!-- Frame on wall -->
  <rect x="200" y="60" width="80" height="60" rx="3" fill="#2A9D8F" opacity="0.06"/>
  <rect x="205" y="65" width="70" height="50" rx="2" fill="#2A9D8F" opacity="0.04"/>
  <rect x="340" y="50" width="60" height="80" rx="3" fill="#2A9D8F" opacity="0.06"/>
  <!-- Plant -->
  <circle cx="510" cy="185" r="30" fill="#2A9D8F" opacity="0.12"/>
  <rect x="506" y="215" width="8" height="35" fill="#2A9D8F" opacity="0.08"/>
  <rect x="496" y="250" width="28" height="10" rx="4" fill="#2A9D8F" opacity="0.06"/>
  <text x="300" y="390" text-anchor="middle" font-family="Inter, sans-serif" font-size="16" fill="#2A9D8F" opacity="0.4">Wartezimmer</text>
</svg>
